<?xml version="1.0" standalone="no"?>
<!DOCTYPE svg PUBLIC "-//W3C//DTD SVG 20010904//EN"
 "http://www.w3.org/TR/2001/REC-SVG-20010904/DTD/svg10.dtd">
<svg version="1.0" xmlns="http://www.w3.org/2000/svg"
 width="64.000000pt" height="64.000000pt" viewBox="0 0 64.000000 64.000000"
 preserveAspectRatio="xMidYMid meet">

<g transform="translate(0.000000,64.000000) scale(0.100000,-0.100000)"
fill="#0859d9" stroke="none">
<path d="M185 596 c-51 -15 -65 -52 -53 -137 9 -54 7 -61 -16 -91 -29 -39 -36
-62 -41 -148 -2 -36 -7 -81 -10 -101 -8 -43 12 -69 55 -69 36 0 60 23 60 58 0
35 -10 49 -43 61 -25 10 -27 15 -27 67 0 56 26 132 40 117 4 -4 13 -25 20 -47
9 -28 21 -42 42 -50 22 -8 33 -23 50 -69 33 -92 85 -126 173 -117 36 3 80 38
104 80 44 79 19 200 -53 255 -38 29 -46 31 -46 10 0 -8 12 -22 26 -31 43 -29
67 -88 62 -157 -4 -54 -8 -63 -41 -93 -62 -57 -146 -44 -183 27 -21 42 -11 82
26 96 24 9 32 21 49 79 30 101 40 176 27 215 -9 27 -19 35 -55 46 -33 10 -48
10 -58 1 -22 -18 2 -33 50 -33 l42 0 3 -52 3 -53 -68 1 c-78 1 -138 -18 -124
-40 6 -10 13 -11 29 -2 11 6 50 11 86 11 71 0 77 -6 51 -50 -7 -14 -21 -40
-29 -57 -14 -31 -18 -33 -66 -33 -48 0 -52 2 -66 33 -9 17 -23 46 -32 62 -10
20 -16 56 -16 105 l-1 75 40 0 c51 0 70 11 54 31 -13 16 -12 16 -64 0z m-40
-486 c0 -18 -6 -26 -23 -28 -13 -2 -25 3 -28 12 -10 26 4 48 28 44 17 -2 23
-10 23 -28z"/>
</g>
</svg>

